<svg xmlns="http://www.w3.org/2000/svg" viewBox="0 0 90 60"><rect width="90" height="60" fill="#B22234"/><rect y="4.615" width="90" height="4.615" fill="#fff"/><rect y="13.846" width="90" height="4.615" fill="#fff"/><rect y="23.077" width="90" height="4.615" fill="#fff"/><rect y="32.308" width="90" height="4.615" fill="#fff"/><rect y="41.538" width="90" height="4.615" fill="#fff"/><rect y="50.769" width="90" height="4.615" fill="#fff"/><rect width="36" height="32.308" fill="#3C3B6E"/><g fill="#fff"><circle cx="3" cy="3" r="1.2"/><circle cx="9" cy="3" r="1.2"/><circle cx="15" cy="3" r="1.2"/><circle cx="21" cy="3" r="1.2"/><circle cx="27" cy="3" r="1.2"/><circle cx="33" cy="3" r="1.2"/><circle cx="6" cy="6.3" r="1.2"/><circle cx="12" cy="6.3" r="1.2"/><circle cx="18" cy="6.3" r="1.2"/><circle cx="24" cy="6.3" r="1.2"/><circle cx="30" cy="6.3" r="1.2"/><circle cx="3" cy="9.6" r="1.2"/><circle cx="9" cy="9.6" r="1.2"/><circle cx="15" cy="9.6" r="1.2"/><circle cx="21" cy="9.6" r="1.2"/><circle cx="27" cy="9.6" r="1.2"/><circle cx="33" cy="9.6" r="1.2"/><circle cx="6" cy="12.9" r="1.2"/><circle cx="12" cy="12.9" r="1.2"/><circle cx="18" cy="12.9" r="1.2"/><circle cx="24" cy="12.9" r="1.2"/><circle cx="30" cy="12.9" r="1.2"/><circle cx="3" cy="16.2" r="1.2"/><circle cx="9" cy="16.2" r="1.2"/><circle cx="15" cy="16.2" r="1.2"/><circle cx="21" cy="16.2" r="1.2"/><circle cx="27" cy="16.2" r="1.2"/><circle cx="33" cy="16.2" r="1.2"/><circle cx="6" cy="19.5" r="1.2"/><circle cx="12" cy="19.5" r="1.2"/><circle cx="18" cy="19.5" r="1.2"/><circle cx="24" cy="19.5" r="1.2"/><circle cx="30" cy="19.5" r="1.2"/><circle cx="3" cy="22.8" r="1.2"/><circle cx="9" cy="22.8" r="1.2"/><circle cx="15" cy="22.8" r="1.2"/><circle cx="21" cy="22.8" r="1.2"/><circle cx="27" cy="22.8" r="1.2"/><circle cx="33" cy="22.8" r="1.2"/><circle cx="6" cy="26.1" r="1.2"/><circle cx="12" cy="26.1" r="1.2"/><circle cx="18" cy="26.1" r="1.2"/><circle cx="24" cy="26.1" r="1.2"/><circle cx="30" cy="26.1" r="1.2"/><circle cx="3" cy="29.4" r="1.2"/><circle cx="9" cy="29.4" r="1.2"/><circle cx="15" cy="29.4" r="1.2"/><circle cx="21" cy="29.4" r="1.2"/><circle cx="27" cy="29.4" r="1.2"/><circle cx="33" cy="29.4" r="1.2"/></g></svg>
