<svg xmlns="http://www.w3.org/2000/svg" viewBox="0 0 1320 360" width="1320" height="360" role="img" aria-label="Harbor">
  <g transform="translate(18,30) scale(0.4666)">
    <g transform="matrix(0.13333333,0,0,-0.13333333,0,642.88)">
      <path fill="#e0a33e" d="m 72.0781,1534.27 c 0,0 1127.5819,922.03 1526.9319,2636.89 0,0 463.95,-1274.4 17.61,-2625.15 L 72.0781,1534.27" />
      <path fill="#e0a33e" d="M 3975.59,2945.05 2812.18,2222.26 c -36.68,-22.79 -84.13,3.59 -84.13,46.78 v 1391.45 c 0,42.35 45.8,68.85 82.51,47.75 l 1163.41,-668.68 c 36.11,-20.75 37,-72.53 1.62,-94.51 z M 2021.85,4821.57 V 1438.84 l 2818.94,416.96 c 0,0 252.54,2501.82 -2818.94,2965.77" />
      <path fill="#e0a33e" d="m 615.313,4.40234 c 0,0 -364.817,308.39866 -604.4224,706.25766 -28.3125,47.012 1.4922,107.77 55.8555,115.281 L 5090.13,1520.12 c 57.31,7.92 102.66,-47.69 82.95,-102.09 C 5065.81,1122 4746.77,351.742 4222.68,0 L 615.313,4.40234" />
    </g>
  </g>
  <text x="389" y="250" font-family="Fraunces, 'Iowan Old Style', Georgia, 'Times New Roman', serif" font-size="218" font-weight="600" letter-spacing="-5" fill="#f3f3f3">Harbor</text>
</svg>
