<svg id="svg1" xmlns="http://www.w3.org/2000/svg" viewBox="0 0 816.04 741.13"><defs><style>.cls-1{fill:#7d99ed;}.cls-2{fill:#fff;}</style></defs><path class="cls-1" d="M473.46,238.63c-10.74,1.39-18,4.4-18.25,10.14s3.37,13.67,17.82,12.53,22.33-7.77,20.75-15.27C492.09,238,487.15,236.86,473.46,238.63Z"/><path class="cls-1" d="M555.58,224.16c-10.74,1.39-18,4.4-18.25,10.14s3.36,13.67,17.82,12.53,22.32-7.77,20.75-15.27C574.21,223.51,569.27,222.39,555.58,224.16Z"/><path class="cls-1" d="M297,357.3c-13.64.23-28.84-4.47-36.36-30.7-7.71-26.86-7-51.71,5.92-62.83,10.2-8.8,24.37-11.08,29.84-11.64,0,.51.08,1,.13,1.52,3.64,40.19,11.35,74.08,23.41,100.78A141.55,141.55,0,0,1,297,357.3Zm81.53-142.59c-14.29.7-25.67,11.47-25.67,11.47s1-19.94,22.23-21.79c21.47-1.88,26.21,15.35,26.21,15.35S392.83,214,378.53,214.71Zm176.3,71.65C520,295.44,492.62,301,467.92,297.21s-41.74-26-47.56-55.85-4.26-54.83,16.17-69c21.53-15,58-20.71,58-20.71,29.42-5.29,57.65-10.12,80.06,0s28.59,37.47,29.83,68.18S592.06,276.65,554.83,286.36Zm61-104.89s2-17.83,19.12-21.91c20-4.76,29.2,14.38,29.2,14.38C634,162.21,615.83,181.47,615.83,181.47Zm132.31,87.42a146.47,146.47,0,0,1-22,4.47,301.19,301.19,0,0,0-3.69-66.06c-2.17-12.78-4.75-25.11-7.78-36.74,5.63-1.43,20.54-4.39,32.89.56,15.57,6.24,24.58,30.61,25.32,57.9C773.65,258.3,759,265.53,748.14,268.89Zm45.6-52.42c-4.15-31.55-14.13-60.09-36.77-67.05-19.49-6-38.33-2.78-48.54.37C700.13,125.54,689.24,105.87,675,94,650.65,73.71,597.71,74.59,533,82.18s-151.24,29.65-193.59,53.29c-35.88,20-45.41,49.91-44.35,93.33-10.95.69-28.65,4.36-44.42,15.83-19.41,14.11-20.06,44.55-13.94,76.55s21.16,57.37,44.71,58.95c25.53,1.7,50.31-4.1,50.31-4.1q2.85,4.35,5.92,8.33c22.47,29.05,81.71,29.05,111.53,25.35,0,0-32.23,39-43.41,73s2.83,50.92,18,51.65c14.82.7,24.82-10.18,28.41-16.74,0,0,7.32,22.25,21.8,30.79L616,529.29c2.66-3.79,21.88-33.39,11.52-83.23,0,0,26.56.88,49.5,13.68,0,0,3.65-15,14.74-20.85,9.24-4.89,17.53-.89,18.41,3.76,0,0-17.44,3.06-19,18.68s23.09,22.38,31.38,9.32,7.53-37.94-25.76-51.94-61.12-17.3-87.41-19.24c0,0-4.47-8.29-7.53-11.29,0,0,41.68-9.79,67.88-22.24s50.6-37,54-68.9a137.16,137.16,0,0,0,43.91-10.21C792.53,276.13,797.89,248,793.74,216.47Z"/><path class="cls-2" d="M270,393.29a623.86,623.86,0,0,1-23.82,114.54L.77,507.77C122.3,388,206.65,246.94,240.53,96A883.25,883.25,0,0,1,267,219.4a96.79,96.79,0,0,0-25.25,13.09C220,248.31,213.34,279.1,221.92,324,229.17,361.9,246.42,386.48,270,393.29Z"/><path class="cls-2" d="M538.47,66.45q-3.57.39-7.27.83c-61.64,7.23-152.39,29-199.15,55.09a105.8,105.8,0,0,0-25.46,19.42L306.42,0C391.54,9.45,470.73,30.83,538.47,66.45Z"/><path class="cls-2" d="M391.46,478c-4.74,14.4-5.54,26-4.32,35.12l-80.08,13-.16-131.41c7-.57,13.28-1.42,18.08-2.2l.75,1c20.48,26.48,61.12,32.56,92.55,32.85C408.46,441.07,397.39,460,391.46,478Z"/><path class="cls-2" d="M763.24,451.89l-21.33,3.47a45.4,45.4,0,0,0-2.06-13.93c-3.43-11-12.68-26.21-37.27-36.55a249.75,249.75,0,0,0-51.36-15.43,249.22,249.22,0,0,0,24.92-10c24.55-11.65,51.8-35.35,60.28-68.69,1.66-.24,3.43-.52,5.28-.85C754.47,352.31,761.91,399.51,763.24,451.89Z"/><path class="cls-2" d="M815.31,518.2c-9.2,23.71-28.36,69.52-55,115-38.36,65.42-93.06,108-126.06,108H124.53c-19.29,0-41.59-9-72.82-42.36S4.33,634.45,1.15,626.15s.58-14.22,7-15.08l465.8-62.66L616,529.29l79.12-10.64c-17.28-30.72-49.42-30.41-49.42-30.41.82-8.59,0-23.53,0-23.53a98.6,98.6,0,0,1,34.53,10.08c1.48,4.17,6.88,15.36,22.37,16a90.42,90.42,0,0,1,18.14,24.42L804.11,504A10.5,10.5,0,0,1,815.31,518.2Z"/></svg>