<?xml version="1.0" encoding="UTF-8"?>
<svg id="Layer_2" data-name="Layer 2" xmlns="http://www.w3.org/2000/svg" viewBox="0 0 1557.96 356.75">
  <defs>
    <style>
      .cls-1 {
        fill: #f3f3f3;
      }
    </style>
  </defs>
  <g id="Layer_1-2" data-name="Layer 1">
    <g>
      <path class="cls-1" d="M572.23,243.33v14.62c2.15.72,4.3,1.55,6.46,2.43l3.8-13.07c-3.2-1.44-6.62-2.76-10.26-3.97M572.23,243.33v14.62c2.15.72,4.3,1.55,6.46,2.43l3.8-13.07c-3.2-1.44-6.62-2.76-10.26-3.97"/>
      <path class="cls-1" d="M656.85,324.53c0,4.58-1.6,9.32-4.8,14.12-3.14,4.86-7.72,8.94-13.73,12.25-6.07,3.31-13.57,4.96-22.62,4.96-12.47,0-22.34-2.92-29.57-8.88-4.25-3.55-7.27-8.05-9.01-13.51-.94-2.95-4.71-3.82-7.06-1.81-6.3,5.38-13.37,9.91-21.22,13.66-14.79,7.01-30.51,10.54-47.17,10.54-20.08,0-36.52-4.91-49.15-14.84-12.69-9.87-19.03-23.22-19.03-39.99,0-18.87,8.44-34.31,25.32-46.34,16.88-12.02,40.16-18.09,69.95-18.09,10.76,0,20.68.99,29.73,2.98,4.85,1.05,9.43,2.32,13.74,3.75v14.62c-4.58-1.66-9.21-3.15-13.9-4.36-6.84-1.82-14.45-2.7-22.67-2.7-15.67,0-27.97,3.7-36.79,11.14-8.88,7.45-13.35,17.65-13.35,30.67s3.64,22.62,10.81,29.35c7.23,6.73,16.44,10.1,27.69,10.1,10.59,0,20.85-2.43,30.67-7.28l.19-.1c10.62-5.19,17.35-15.98,17.35-27.8v-39.02c2.15.72,4.3,1.54,6.45,2.43l3.81-13.07c-3.2-1.44-6.62-2.76-10.26-3.97v-64.21c0-13.62-3.42-24.05-10.32-31.33-6.9-7.28-16.66-10.92-29.35-10.92-12.02,0-21.07,2.43-27.09,7.34-6.01,4.91-8.99,10.87-8.99,17.82v18.76c0,7.61-2.54,13.46-7.5,17.6-5.02,4.13-11.91,6.18-20.8,6.18-7.78,0-13.68-2.04-17.82-6.07-4.14-4.03-6.18-9.38-6.18-16,0-9.88,3.86-19.36,11.53-28.52,7.67-9.21,18.81-16.82,33.37-22.84,14.57-6.01,32.22-8.99,52.96-8.99,27.09,0,47.22,5.79,60.35,17.43,13.18,11.64,19.75,27.19,19.75,46.67v128.53c0,5.07.99,8.82,2.98,11.2,1.99,2.37,4.69,3.53,8.17,3.53,3.97,0,6.79-.88,8.44-2.7,1.66-1.82,3.15-3.64,4.41-5.35.77-.94,1.6-1.76,2.48-2.48.88-.71,1.93-1.1,3.2-1.1,1.77,0,3.04.6,3.81,1.82.77,1.16,1.22,2.81,1.22,4.85"/>
      <path class="cls-1" d="M857.07,166.76c0,10.92-2.32,19.2-7.01,24.83-4.63,5.63-10.7,8.44-18.15,8.44s-13.24-2.1-17.32-6.29c-4.14-4.19-6.18-10.04-6.18-17.49v-8.05c-.17-5.4-1.49-9.38-3.92-12.02-2.48-2.59-6.62-3.92-12.52-3.92-6.78,0-13.46,2.76-19.92,8.22-19.06,16.12-22.94,44.35-22.31,67.87.54,20.14.19,40.37.19,60.53v28.26c0,4.14.94,7.23,2.76,9.27,1.82,2.1,4.91,3.42,9.37,4.03l21.35,3.14c3.37.44,5.85,1.38,7.5,2.81,1.66,1.43,2.48,3.42,2.48,5.96s-.94,4.52-2.81,5.9c-1.93,1.43-4.69,2.15-8.33,2.15h-100.95c-3.7,0-6.35-.72-8.11-2.15-1.76-1.38-2.59-3.37-2.59-5.9,0-1.93.66-3.59,1.98-5.02,1.38-1.44,3.48-2.48,6.29-3.31l11.2-2.59c3.14-.83,5.52-2.26,7.11-4.41,1.6-2.15,2.38-5.35,2.38-9.71v-34.13c0-16.26,0-32.52-.02-48.78-.02-16.86-.19-33.72-.33-50.59-.05-6.91.36-12.93-4.74-18.27-3.82-4-9.45-5.87-14.89-6.05-3.2-.11-7.39-.11-9.82-2.59-1.21-1.16-1.82-2.7-1.82-4.64,0-2.04.72-3.75,2.15-5.08,1.44-1.32,3.86-2.65,7.39-3.92l38.45-13.79c6.35-2.21,11.09-3.69,14.18-4.52,3.09-.77,5.46-1.16,7.23-1.16,2.98,0,5.3.94,6.9,2.81,1.55,1.93,2.54,5.19,2.81,9.76l1.46,28.38c.13,2.53,3.52,3.24,4.64.97,4.87-9.98,13.63-25.24,24.24-31.83,11.32-7.02,22.01-12.02,34.09-12.02,14.4,0,25.6,3.97,33.6,11.91,8,7.89,11.97,18.92,11.97,32.99"/>
      <path class="cls-1" d="M1557.96,166.76c0,10.92-2.32,19.2-7.01,24.83-4.63,5.63-10.7,8.44-18.15,8.44s-13.24-2.1-17.32-6.29c-4.14-4.19-6.18-10.04-6.18-17.49v-8.05c-.17-5.4-1.49-9.38-3.92-12.02-2.48-2.59-6.62-3.92-12.53-3.92-6.78,0-13.46,2.76-19.92,8.22-19.06,16.12-22.94,44.35-22.31,67.87.54,20.14.19,40.37.19,60.53v28.26c0,4.14.94,7.23,2.76,9.27,1.82,2.1,4.91,3.42,9.37,4.03l21.35,3.14c3.37.44,5.85,1.38,7.5,2.81,1.66,1.43,2.48,3.42,2.48,5.96s-.94,4.52-2.81,5.9c-1.93,1.43-4.69,2.15-8.33,2.15h-100.95c-3.7,0-6.35-.72-8.11-2.15-1.77-1.38-2.59-3.37-2.59-5.9,0-1.93.66-3.59,1.99-5.02,1.38-1.44,3.47-2.48,6.29-3.31l11.2-2.59c3.14-.83,5.52-2.26,7.11-4.41,1.6-2.15,2.38-5.35,2.38-9.71v-34.13c0-16.26,0-32.52-.02-48.78-.02-16.86-.19-33.72-.32-50.59-.05-6.91.36-12.93-4.74-18.27-3.82-4-9.45-5.87-14.89-6.05-3.2-.11-7.39-.11-9.82-2.59-1.21-1.16-1.82-2.7-1.82-4.64,0-2.04.72-3.75,2.15-5.08,1.44-1.32,3.86-2.65,7.39-3.92l38.45-13.79c6.35-2.21,11.09-3.69,14.18-4.52,3.09-.77,5.46-1.16,7.23-1.16,2.98,0,5.3.94,6.9,2.81,1.55,1.93,2.54,5.19,2.82,9.76l1.41,27.46c.13,2.52,3.5,3.23,4.62.97,5.35-10.88,14.38-23.45,24.31-30.91,10.64-8,22.01-12.02,34.09-12.02,14.4,0,25.6,3.97,33.6,11.91,8,7.89,11.97,18.92,11.97,32.99"/>
      <path class="cls-1" d="M926.27,327.84v.11c.06,0,.06-.05.06-.05,0,0-.06,0-.06-.05"/>
      <path class="cls-1" d="M1092.48,175.92c-8.49-16.88-20.02-30.06-34.7-39.66-14.62-9.6-31.39-14.4-50.25-14.4s-36.63,5.19-52.85,15.45c-6.56,4.19-12.84,9.04-18.74,14.55-1.58,1.48-4.16.42-4.16-1.75V12.58c0-3.97-1.1-7.06-3.25-9.27-2.1-2.21-5.35-3.31-9.6-3.31-2.21,0-4.85.39-7.94,1.16-3.09.83-7.28,2.15-12.46,4.08l-39.22,13.73c-3.7,1.27-6.12,2.59-7.5,3.92-1.38,1.38-1.99,3.09-1.99,5.13,0,1.93.61,3.48,1.76,4.63,1.22,1.21,3.2,1.93,6.07,2.26l15.88.72c2.87.33,4.91,1.32,6.07,2.98,1.16,1.66,1.82,4.3,1.82,7.94v300.92c0,4.99,3.99,9.04,8.97,9.1,8.9.11,19.28.11,27.1.16,5.1.04,9.21-4.1,9.17-9.2-.05-5.59-.05-12.47-.09-17.22,0-.85.99-1.24,1.6-.64,4.75,4.67,9.95,8.75,15.59,12.27,14.84,9.27,31.67,13.9,50.48,13.9,20.58,0,39.28-4.91,56.05-14.84,16.83-9.87,30.12-24,39.99-42.31,9.99-18.26,14.89-39.94,14.89-64.93,0-21.73-4.19-40.99-12.69-57.87M1043.5,292.09c-5.74,14.01-13.62,24.49-23.61,31.5-9.99,6.95-21.29,10.43-33.93,10.43s-25.32-3.7-36.74-11.14c-5.46-3.53-9.82-8.33-12.8-13.85-2.98-5.57-4.64-11.86-4.64-18.31v-95.16c0-14.51,7.28-28.02,19.42-35.91h.05c11.53-7.45,23.72-11.15,36.58-11.15s23.61,3.42,33.26,10.32c9.65,6.9,17.27,17.05,22.79,30.51,5.57,13.46,8.33,30.29,8.33,50.37s-2.87,38.39-8.72,52.41"/>
      <path class="cls-1" d="M1242.14,122.11c-23.28,0-43.83,4.96-61.65,14.85-17.82,9.9-31.75,23.68-41.82,41.34-10.05,17.66-15.08,37.98-15.08,60.94s5.11,42.29,15.32,59.86c10.22,17.59,24.32,31.45,42.29,41.58,17.98,10.14,38.85,15.2,62.6,15.2s43.83-4.99,61.65-14.97c17.81-9.98,31.76-23.79,41.81-41.46,10.06-17.65,15.09-37.88,15.09-60.69s-5.11-42.73-15.33-60.23c-10.21-17.49-24.31-31.28-42.29-41.34-17.97-10.06-38.84-15.09-62.6-15.09M1225.28,335.21c-13.14-1.9-23.87-7.33-32.19-16.27-8.31-8.95-13.86-20.99-16.63-36.11-2.77-15.13-2.41-32.91,1.07-53.33,3.48-20.59,9.19-37.65,17.1-51.2,7.92-13.54,17.5-23.36,28.75-29.45,11.25-6.1,23.68-8.12,37.3-6.06,13.14,1.9,23.87,7.32,32.19,16.27,8.32,8.95,13.86,20.95,16.63,35.99,2.77,15.05,2.42,32.87-1.07,53.46-3.48,20.43-9.19,37.45-17.1,51.08-7.92,13.62-17.5,23.43-28.75,29.46-11.25,6.02-23.68,8.07-37.3,6.17"/>
      <path class="cls-1" d="M157.75,329.83l-15.47-2.78c-3.43-.93-6.12-2.38-8-4.31-1.86-1.9-2.76-4.32-2.76-7.4v-67.46c0-16.07-10.63-30.2-26.06-34.66l-31.37-9.07v111.19c0,2.99-.93,5.48-2.75,7.39-1.94,1.94-4.73,3.39-8.19,4.3l-15.4,2.82c-6.64,1.89-10,5.51-10,10.75,0,2.97,1.07,5.4,3.19,7.2,2.12,1.75,5.29,2.61,9.69,2.61h104.29c4.45,0,7.59-.86,9.6-2.63,2.07-1.82,3.11-4.23,3.11-7.18,0-5.23-3.29-8.85-9.89-10.78"/>
      <path class="cls-1" d="M259.08,38.41l15.48,2.77c3.6.94,6.32,2.38,8.07,4.29,1.77,1.92,2.67,4.42,2.67,7.42v84.92c0,16.08,10.64,30.22,26.09,34.67l31.34,9.03V52.89c0-2.98.93-5.47,2.76-7.4,1.88-1.93,4.64-3.38,8.13-4.29l15.45-2.82c6.63-1.9,10-5.52,10-10.76,0-3.16-1.08-5.63-3.21-7.32-2.09-1.67-5.26-2.49-9.67-2.49h-104.35c-4.3,0-7.37.82-9.4,2.49-2.14,1.7-3.26,4.23-3.26,7.32,0,5.23,3.29,8.85,9.89,10.78"/>
      <path class="cls-1" d="M416.83,204.15v-22.64H147.13c-8.62,0-15.6-6.99-15.6-15.6V52.89c0-3.07.9-5.5,2.76-7.4,1.87-1.93,4.57-3.38,7.9-4.29l15.68-2.83c6.49-1.9,9.78-5.52,9.78-10.75,0-3.1-1.09-5.62-3.13-7.3-1.99-1.69-5.12-2.51-9.59-2.51H50.64c-4.42,0-7.58.81-9.67,2.49-2.13,1.69-3.21,4.16-3.21,7.32,0,5.24,3.37,8.86,10.11,10.78l15.21,2.78c3.55.93,6.33,2.38,8.25,4.3,1.84,1.94,2.77,4.43,2.77,7.41v128.62H0v22.64h269.7c8.62,0,15.6,6.98,15.6,15.6v95.59c0,3.01-.9,5.51-2.67,7.42-1.75,1.9-4.47,3.34-7.99,4.27l-15.68,2.83c-6.49,1.9-9.78,5.52-9.78,10.75,0,2.94,1.09,5.36,3.23,7.19,2.04,1.73,5.21,2.62,9.43,2.62h104.35c4.4,0,7.57-.86,9.7-2.62,2.11-1.8,3.18-4.22,3.18-7.19,0-5.24-3.37-8.86-10.11-10.77l-15.27-2.78c-3.56-.93-6.32-2.38-8.19-4.3-1.84-1.93-2.77-4.43-2.77-7.41v-111.19h74.1Z"/>
    </g>
  </g>
</svg>