<?xml version="1.0" encoding="UTF-8"?><svg id="Layer_1" xmlns="http://www.w3.org/2000/svg" viewBox="0 0 872.3 955.54"><defs><style>.cls-1{fill:#5a323a;}.cls-2{fill:#f3c0a5;}.cls-3{fill:#de9380;}.cls-4{fill:#fff;}.cls-5{fill:#fffffd;}.cls-6{fill:#f2bea6;}.cls-7{fill:#b73a36;}.cls-8{fill:#742d35;}.cls-9{fill:#f9e4d3;}.cls-10{fill:#b93938;}.cls-11{fill:#d98a79;}.cls-12{fill:#b53939;}.cls-13{fill:#da8e7e;}.cls-14{fill:#4d2e2c;}.cls-15{fill:#bfacae;}.cls-16{fill:#742b36;}.cls-17{fill:#de908e;}.cls-18{fill:#f2c0a5;}.cls-19{fill:#b46360;}.cls-20{fill:#752c37;}.cls-21{fill:#b73a38;}.cls-22{fill:#722a35;}.cls-23{fill:#f2b737;}.cls-24{fill:#772d3a;}.cls-25{fill:#f1bea3;}.cls-26{fill:#702732;}.cls-27{fill:#f2c0a7;}.cls-28{fill:#da8b7a;}.cls-29{fill:#e08f8e;}.cls-30{fill:#202538;}.cls-31{fill:#dc9380;}.cls-32{fill:#4f3632;}.cls-33{fill:#f9e3d5;}.cls-34{fill:#b6a4a2;}.cls-35{fill:#6d4c45;}.cls-36{fill:#da8978;}.cls-37{fill:#c0acae;}.cls-38{fill:#f3bda5;}.cls-39{fill:#e8e0d3;}</style></defs><path class="cls-30" d="M819.46,300.62c30.11-29.93,40.66-69.08,41.09-70.73,1.1-4.18,.46-8.64-1.78-12.34-2.24-3.7-5.88-6.34-10.1-7.32-.68-.16-16.84-3.83-39.2-3.83-20.74,0-40.03,3.08-57.34,9.15-20.55,7.2-38.71,20.3-53.96,38.92-10.15,12.37-16.18,23.91-18.59,28.99-4.55-1.53-9.29-2.45-14.09-2.68-.26-.01-.51-.02-.77-.02-.51,0-1.01,.03-1.51,.08-.85-10-2.1-20.37-3.77-30.92-2.35-14.89-6.5-30.32-12.33-45.88-8.98-23.94-21.45-46.91-37.05-68.27-.1-.14-.21-.28-.32-.42-24.51-33.42-55.34-61.01-91.65-82.03-.12-.08-.25-.15-.38-.22-23.1-13.33-48.41-23.93-75.24-31.49-.15-.04-.5-.13-.5-.13-21.8-6.1-45.55-9.19-70.6-9.19-22.11,0-44.77,2.39-67.38,7.12-.09,.02-.17,.03-.26,.05-41.75,8.75-79.93,24.69-107.56,44.9l-1.74,1.28c-.16,.11-.32,.22-.47,.34-32.13,23.74-54.94,45.31-71.75,67.89-.06,.07-.11,.14-.16,.22-8.69,11.71-16.17,24.2-22.88,38.18-1.91,3.98-3.76,7.96-5.5,11.83-11.96,26.57-20.48,51.85-21.7,64.41-.58,5.92,2.18,11.66,7.15,14.92,1.17,.77,2.43,1.36,3.73,1.79-3.45,16.3-6.19,37.51-8.04,56.17-.55-.1-1.1-.18-1.67-.22-.4-.03-1.26-.08-2.52-.08-17.1,0-39.67,8.64-51.75,32.91-10.12,20.34-10.19,46.77-.21,70.77,.05,.12,.09,.23,.14,.35,6.66,15.86,17.37,29.58,30.97,39.68,2.65,1.97,5.79,3.02,8.98,3.13-.69,11.7-.91,23.24-.35,33.17,1.09,19.21,6.04,36.77,8.9,45.53,7.81,23.93,14.23,28.71,16.35,30.29,2.57,1.91,7.34,5.46,13.82,5.46,2.29,0,4.82-.48,7.25-1.58,1.57,3.75,3.35,7.75,5.38,11.93,14,28.77,42.43,53.3,43.64,54.33,2.99,2.56,6.71,3.86,10.45,3.86,.48,0,.96-.03,1.43-.07-.06,3.39-.34,7.3-.92,12.06-.91,7.51-2.93,15.6-4.87,23.41-2.5,10.02-4.85,19.49-4.86,27.79-.06,3.86,.41,27.08,18.8,51.85,14.33,19.33,38.47,30.42,66.22,30.42h0c6.83,0,13.69-.68,20.36-2.02,5.41-1.09,11.13-2.66,16.92-4.69,.79,1.9,1.96,3.64,3.45,5.13-1.63,2.57-2.53,5.61-2.49,8.79l1.68,123.89c.06,4.75,2.24,9.23,5.93,12.22,2.87,2.33,6.43,3.56,10.07,3.56,1.04,0,2.08-.1,3.12-.31,30.92-6.15,60.06-21.67,89.09-47.44,.84-.74,1.58-1.56,2.24-2.45,2.19,1.06,4.58,1.6,6.96,1.6,4.05,0,8.09-1.53,11.2-4.57,43.15-42.26,60.01-112.76,41-171.43-4.62-14.26-11.19-27.11-19.55-38.3,.76,.11,1.53,.19,2.3,.19,1.3,0,2.62-.16,3.92-.49,44.35-11.21,67.74-37.02,80.6-56.63,1.63,1.83,3.67,3.28,6.01,4.22,1.92,.77,3.93,1.14,5.94,1.14,3.23,0,6.44-.98,9.17-2.89,20.54-14.36,36.35-39.08,50.12-79.45,0,.04,.01,.09,.02,.13,4.3,27.83,21.31,47.25,43.32,49.47,1.5,.15,3,.23,4.46,.23,19.96,0,35.42-13.85,42.4-38,5.58-19.28-.11-37.39-.78-39.39-.58-1.73-1.45-3.33-2.55-4.74,31.77-24.22,39.29-63.94,35.07-90.21,9.82,8.8,22.36,16.97,37.95,21.77,11.14,3.43,22.18,5.92,32.81,7.39,7.41,1.02,14.59,1.54,21.33,1.54h0c10.14,0,16.04-1.16,17.11-1.4,4.35-.94,8.11-3.65,10.38-7.47s2.85-8.42,1.59-12.69c-1.48-5.01-15.11-49.59-39.2-71.83-7.94-7.33-16.58-13.64-25.68-18.77-.12-.07-.25-.14-.38-.21-4.48-2.5-9.06-4.71-13.73-6.64,17-3.52,37-10.5,54.88-24.15,4.31-3.3,8.5-6.95,12.44-10.87Z"/><g><g><g><g><g><g><g><path class="cls-17" d="M131.43,181.64c-.26,.53-.51,1.06-.77,1.59-1.89,3.94-3.67,7.77-5.34,11.48-8.59,19.07-14.29,34.95-17.45,46.03-12.91,5.39-19.97,9.33-19.97,9.33,.83-8.51,7.23-30.21,20.37-59.4,3.42-1.52,11.38-4.92,23.16-9.03Z"/><path class="cls-29" d="M238.89,70.77c-5.79,3.36-11.2,6.88-16.17,10.52-.72,.53-1.44,1.06-2.16,1.59-.02,.01-.03,.01-.03,.01-25.29,18.69-43.71,35.26-57.87,51.5-17.07,5.03-27.32,9.06-27.74,9.22,15.32-20.62,36.37-40.98,68.56-64.76,0,0,.01,0,.03-.01,.68-.23,13.49-4.45,35.38-8.07Z"/><path class="cls-7" d="M537.12,100.52c-45-28.11-112.33-59.99-191.65-65.11h0c-12.52-.8-25.34-.94-38.42-.29,42.45-8.9,89.05-9.91,130.86,1.83l.24,.06c26.74,7.54,50.53,17.8,71.58,29.95,0,0,.01,.01,.04,.03,.78,.68,13.73,12.05,27.36,33.53Z"/><path class="cls-24" d="M647.54,285.27c-21.54-28.76-48.3-54.11-78.19-75.9-.02-4.51-.22-9.17-.63-14.01-1.63-19.36-5.64-36.62-10.85-51.72,34.09,22.45,59.89,46.19,74.26,66.03,5.64,15.03,9.42,29.5,11.51,42.75,1.88,11.93,3.13,22.88,3.9,32.85Z"/><path class="cls-26" d="M597.1,145.18c-.78-.73-22.73-21.4-59.98-44.66-13.63-21.48-26.58-32.85-27.36-33.53,37.42,21.6,66.15,49.2,87.34,78.19Z"/><path class="cls-10" d="M569.35,209.37c-65.47-47.73-145.95-78.43-219.45-90.71-73.95-12.35-148.32,4.27-187.24,15.73,14.16-16.24,32.58-32.81,57.87-51.5,0,0,.01,0,.03-.01,.72-.53,1.44-1.06,2.16-1.59,4.97-3.64,10.38-7.16,16.17-10.52,34.52-5.73,91.63-9.99,159.36,5.18,62.02,13.89,117.22,39.79,159.61,67.68h.01c5.21,15.11,9.22,32.37,10.85,51.73,.41,4.84,.61,9.5,.63,14.01Z"/><path class="cls-16" d="M648.61,313.47c-.08,16.62-1.52,28.84-2.83,36.57-1.11,6.61-2.14,9.94-2.14,9.94,0,0-37.34-38.68-96.65-72.26,7.11-10.44,14.09-24.26,18.3-41.82,3.25,2.18,6.41,4.35,9.49,6.51,1.54,1.06,3.06,2.14,4.56,3.21,3.74,2.66,7.35,5.3,10.81,7.88,.7,.51,1.39,1.03,2.07,1.54,8.07,6.06,15.36,11.84,21.81,17.16,.51,.42,1.01,.83,1.51,1.25,1.5,1.25,2.95,2.46,4.35,3.65,.94,.79,1.85,1.57,2.74,2.34,.44,.38,.89,.76,1.32,1.13,1.3,1.13,2.56,2.22,3.77,3.29,1.21,1.06,2.37,2.09,3.47,3.08,.01,0,.03,.02,.04,.03,.27,.24,.54,.49,.81,.73,.8,.72,1.58,1.42,2.32,2.1,.65,.59,1.28,1.16,1.88,1.72,.61,.56,1.2,1.1,1.76,1.63,.56,.53,1.1,1.03,1.62,1.52,.01,0,.01,.01,.01,.01,.52,.49,1.02,.96,1.49,1.41,2.03,1.94,3.67,3.53,4.88,4.74,.15,.14,.29,.28,.42,.42,.14,.13,.27,.26,.39,.39,.13,.12,.24,.24,.35,.35,.41,.41,.74,.74,.97,.99l.19,.19c.06,.06,.11,.11,.15,.16,.04,.03,.07,.07,.09,.09l.05,.05Z"/><path class="cls-21" d="M565.29,245.9c-4.21,17.56-11.19,31.38-18.3,41.82-11.84-6.72-24.56-13.22-38.03-19.18-37.42-16.53-76.61-30.84-117.22-41.08-47.23-11.92-96.36-18.32-146.84-16.33-62.48,2.46-111.34,18.9-137.03,29.61,3.16-11.08,8.86-26.96,17.45-46.03,1.67-3.71,3.45-7.54,5.34-11.48,.26-.53,.51-1.06,.77-1.59,44.22-15.41,142.27-40.87,255.88-14.98,5.59,1.27,11.12,2.65,16.59,4.11,1.01,.27,2.02,.55,3.03,.83,1.92,.52,3.84,1.07,5.75,1.62,.98,.28,1.96,.57,2.93,.86,1.11,.32,2.21,.65,3.31,.99,3.82,1.16,7.61,2.37,11.36,3.61,1.78,.59,3.54,1.18,5.3,1.79,1.27,.44,2.54,.88,3.81,1.33,1.11,.39,2.21,.79,3.32,1.19,1.1,.39,2.19,.79,3.29,1.2,1.1,.4,2.19,.81,3.28,1.23,1.02,.38,2.04,.77,3.06,1.16,1.15,.44,2.29,.89,3.43,1.34,.89,.34,1.77,.69,2.65,1.05,10.96,4.38,21.56,9.05,31.75,13.91,.91,.43,1.82,.87,2.72,1.31,1.02,.49,2.03,.99,3.04,1.48,.97,.47,1.93,.95,2.89,1.43,.97,.49,1.94,.97,2.91,1.46,.96,.49,1.92,.98,2.88,1.47,.96,.49,1.91,.98,2.86,1.48,.18,.09,.36,.18,.54,.28,1.72,.9,3.42,1.8,5.11,2.7,6.99,3.73,13.76,7.54,20.29,11.37,.81,.47,1.62,.95,2.42,1.43,.81,.47,1.61,.95,2.4,1.43,.8,.47,1.59,.95,2.38,1.43,.79,.47,1.58,.95,2.36,1.43,1.51,.93,3,1.85,4.48,2.77,.06,.04,.11,.07,.16,.1,1.54,.96,3.06,1.91,4.56,2.87,3.01,1.91,5.96,3.82,8.84,5.73,.72,.48,1.44,.95,2.15,1.43,.72,.47,1.42,.95,2.13,1.42Z"/><path class="cls-5" d="M569.35,209.37c.09,13.64-1.46,25.79-4.06,36.53-.71-.47-1.41-.95-2.13-1.42-.71-.48-1.43-.95-2.15-1.43-2.88-1.91-5.83-3.82-8.84-5.73-1.5-.96-3.02-1.91-4.56-2.87-.05-.03-.1-.06-.16-.1-1.48-.92-2.97-1.84-4.48-2.77-.78-.48-1.57-.96-2.36-1.43-.79-.48-1.58-.96-2.38-1.43-.79-.48-1.59-.96-2.4-1.43-.8-.48-1.61-.96-2.42-1.43-6.53-3.83-13.3-7.64-20.29-11.37-1.69-.91-3.39-1.81-5.11-2.7-.18-.1-.36-.19-.54-.28-.95-.5-1.9-.99-2.86-1.48-.96-.49-1.92-.98-2.88-1.47-.97-.49-1.94-.97-2.91-1.46-.96-.48-1.92-.96-2.89-1.43-1.01-.49-2.02-.99-3.04-1.48-.9-.44-1.81-.88-2.72-1.31-10.19-4.86-20.79-9.53-31.75-13.91-.88-.36-1.76-.71-2.65-1.05-1.14-.45-2.28-.9-3.43-1.34-1.02-.39-2.04-.78-3.06-1.16-1.09-.42-2.18-.83-3.28-1.23-1.1-.41-2.19-.81-3.29-1.2-1.11-.4-2.21-.8-3.32-1.19-1.27-.45-2.54-.89-3.81-1.33-1.76-.61-3.52-1.2-5.3-1.79-3.75-1.24-7.54-2.45-11.36-3.61-1.1-.34-2.2-.67-3.31-.99-.97-.3-1.95-.58-2.93-.86-1.91-.55-3.83-1.1-5.75-1.62-1.01-.28-2.02-.56-3.03-.83-5.47-1.46-11-2.84-16.59-4.11-113.61-25.89-211.66-.43-255.88,14.98-11.78,4.11-19.74,7.51-23.16,9.03,1.67-3.71,3.45-7.54,5.34-11.48,5.93-12.37,12.72-24.01,21.3-35.57h.01c.42-.17,10.67-4.2,27.74-9.23,38.92-11.46,113.29-28.08,187.24-15.73,73.5,12.28,153.98,42.98,219.45,90.71Z"/><path class="cls-37" d="M648.61,313.47l-.05-.05s-.05-.06-.09-.09c-.04-.05-.09-.1-.15-.16l-.19-.19c-.23-.25-.56-.58-.97-.99-.11-.11-.22-.23-.35-.35-.12-.13-.25-.26-.39-.39-.13-.14-.27-.28-.42-.42-1.21-1.21-2.85-2.8-4.88-4.74-.47-.45-.97-.92-1.49-1.41,0,0,0-.01-.01-.01-.52-.49-1.06-1-1.62-1.52-.56-.53-1.15-1.07-1.76-1.63-.6-.56-1.23-1.13-1.88-1.72-.74-.68-1.52-1.38-2.32-2.1-.27-.24-.54-.49-.81-.73-.01-.01-.03-.03-.04-.03-1.1-.99-2.26-2.02-3.47-3.08-1.21-1.07-2.47-2.16-3.77-3.29-.43-.37-.88-.75-1.32-1.13-.89-.77-1.8-1.55-2.74-2.34-1.4-1.19-2.85-2.4-4.35-3.65-.5-.42-1-.83-1.51-1.25-6.45-5.32-13.74-11.1-21.81-17.16-.68-.51-1.37-1.03-2.07-1.54-3.46-2.58-7.07-5.22-10.81-7.88-1.5-1.07-3.02-2.15-4.56-3.21-3.08-2.16-6.24-4.33-9.49-6.51,2.6-10.74,4.15-22.89,4.06-36.53,29.89,21.79,56.65,47.14,78.19,75.9h0c.82,10.5,1.12,19.9,1.07,28.2Z"/><path class="cls-15" d="M632.13,209.67c-14.37-19.84-40.17-43.58-74.26-66.03h-.01c-5.93-17.23-13.43-31.62-20.74-43.12,37.25,23.26,59.2,43.93,59.98,44.66l.02,.02,.02,.02c15.6,21.35,27.11,43.44,34.99,64.45Z"/><path class="cls-4" d="M557.86,143.63c-42.39-27.89-97.59-53.79-159.61-67.68-67.73-15.17-124.84-10.91-159.36-5.18-21.89,3.62-34.7,7.84-35.38,8.07,.72-.53,1.44-1.06,2.16-1.59,25.09-18.36,61.37-33.75,101.36-42.13h.01c13.08-.65,25.9-.51,38.42,.29h0c79.32,5.12,146.65,37,191.65,65.11,7.31,11.5,14.81,25.89,20.74,43.11Z"/></g><path class="cls-22" d="M664.72,296.77c2.1,26.55,.55,51.64-6.35,74.59,0,0,34.22,7.62,40.71-23.06,6.94-32.82-14.82-50.59-34.35-51.53Z"/><path class="cls-8" d="M761.09,268.16c-21.6,9.58-54.95,26.29-61.81,29.74-1.92-1.97-3.98-3.83-6.14-5.59,0,0,5.43-13.08,17.41-27.68,13.48-3.24,35.92-6.36,50.54,3.53Z"/><path class="cls-8" d="M808.18,289.28c-3.35,3.33-6.97,6.52-10.87,9.5-35.76,27.29-82.64,24.23-82.64,24.23-1.39-4.18-3.13-8.05-5.18-11.65,11.2-6.77,34.14-21.65,50.8-33.42,5.41,2.5,23.47,10,47.89,11.34Z"/><path class="cls-7" d="M845.08,225.83s-9.53,36.24-36.9,63.45c-24.42-1.34-42.48-8.84-47.89-11.34,12.42-8.77,21.36-15.82,19.38-16.52-1.39-.49-8.77,2.39-18.58,6.74-14.62-9.89-37.06-6.77-50.54-3.53,10.41-12.71,25.8-26.58,46.88-33.97,43.11-15.12,87.65-4.83,87.65-4.83Z"/><path class="cls-20" d="M782.89,437.25c-8.6-1.19-18.76-3.28-30.28-6.83-39.77-12.23-56.59-51.17-56.59-51.17,4.01-2.97,7.23-6.35,9.81-9.83,9.36,6.71,50.75,32.14,55.47,33.09,4.21,12.45,9.54,24.24,21.59,34.74Z"/><path class="cls-12" d="M815.78,437.6s-11.8,2.55-32.89-.35c-12.05-10.5-17.38-22.29-21.59-34.74,.1,.02,.18,.03,.25,.03,2.71-.1,3.03-4.42-3.77-10.93-6.77-19.89-20-32.95-20-32.95,5.9-2.43,20.15-2.25,20.61-2.24h.01c7.63,4.3,15.27,9.75,22.68,16.59,21.53,19.88,34.7,64.59,34.7,64.59Z"/><path class="cls-20" d="M757.78,391.61c-1.46-1.4-3.25-2.9-5.41-4.48-10.65-7.79-33.99-25.39-39.83-29.8,3.24-8.11,3.71-14.55,3.71-14.55,13.04,1.46,27.59,5.46,42.14,13.64-.46,0-14.71-.19-20.61,2.24,0,0,13.23,13.06,20,32.95Z"/><path class="cls-38" d="M693.9,425.01c-5.29-28.35-32.12-41.41-56.47-32.82-24.35,8.59-29.88,35.41-34.59,62.94-4.7,27.53-10.23,59.29-10.23,59.29h4c3.94-8.54,11.35-22.94,23.53-25.01,.09-.02,.19-.03,.29-.05,6.66-1.01,11.23,1.28,13.91,4.54,2.29,2.78,3.2,6.26,2.85,8.98-.75,5.91-5.17,13.43-5.17,13.43,55.65-12.48,67.17-62.95,61.88-91.3Zm-64.88,40.35c-1.88,6.83-4.43,8.34-7.24,8.06-5.74-.56-7.11-7.17-4.43-17.21,.7-2.6,1.67-5.42,2.9-8.43,6-14.65,18.18-28.2,32.52-28.24,14.34-.04,21.84,3.97,22.63,8.29,.11,.58,.11,1.13,.01,1.64-.5,2.59-3.6,4.12-8.61,2.91-6-1.46-18.4-3.05-26.69,7.45-8.3,10.5-9.21,18.71-11.09,25.53Z"/><path class="cls-31" d="M648.84,491.72c-5.01,1.79-9.96,2.44-14.5,2.18-2.68-3.26-7.25-5.55-13.91-4.54-.1,.02-.2,.03-.29,.05-4.09-2.77-6.74-6.62-7.18-10.99-1.13-11.13,3.94-21.34,4.39-22.21-2.68,10.04-1.31,16.65,4.43,17.21,2.81,.28,5.36-1.23,7.24-8.06,1.88-6.82,2.79-15.03,11.09-25.53,8.29-10.5,20.69-8.91,26.69-7.45,5.01,1.21,8.11-.32,8.61-2.91,.02,.04,.05,.08,.07,.13,11.82,22.23-8.87,55.76-26.64,62.12Z"/></g><path class="cls-23" d="M656.47,526.73l5.78-2.78s4.94,14.82,.59,29.88c-4.35,15.06-13.29,27.97-29.88,26.29-16.59-1.68-26.47-18.88-29.12-36-2.45-15.86,4.26-37.85,16.41-45.84,1.68-1.11,3.89-.99,5.53,.19h0c2.15,1.55,2.7,4.52,1.25,6.74-3.68,5.63-9.69,16.79-9.36,29.09,.47,17.65,8.12,30.82,22,30.82s20.88-20.76,16.8-38.39Z"/></g><path class="cls-9" d="M137.3,518.2c-12.92-10.7-27.55-27.27-37.28-49.25-18.06-40.8-14.84-78.98-14.46-82.89,.01-.09,.02-.17,.03-.26,.01-.05,.01-.07,.01-.07,1.27-10.01,2.08-20.54,2.77-33.19,1.18-21.65,5.41-65.18,11.47-89.88,0,0,7.58-3.9,21.12-9.1-.29,.91-.64,1.99-1.04,3.24-5.87,18.75-21.44,74.61-22.02,141.39-.69,80.35,37.54,118.21,39.4,120.01Z"/><path class="cls-3" d="M202.81,243.12c-50.85,3.89-82.89,13.68-82.89,13.68,.4-1.25,.75-2.33,1.04-3.24,16.22-6.24,40.99-14.34,71.58-19.89,3.37,3.19,6.8,6.34,10.27,9.45Z"/><path class="cls-32" d="M604.72,401.95s-4,32.95-18.35,92.01c-14.35,59.05-31.06,100.23-57.65,118.82,0,0-4.73-23.3-10.64-22.06-5.91,1.23-17.83,56.64-85.83,73.82,0,0,6.83-24.71-1.17-24.71s-34.24,48.12-99.36,49.18c0,0-.35-13.76-7.41-21.7,0,0,31.24-15.83,39-31.48,1.8-3.63,2.66-7.71,2.59-11.81,6.55,13.36-3.06,27.93-3.06,27.93,43.54-6.15,76.45-45.61,77.32-46.65-.23,.73-5.94,19.17,.98,21.42,7.05,2.29,31.94-5.47,58.41-38.3,26.17-32.44,40.22-88.02,40.55-89.3v-.02c.62-.99,1.22-1.99,1.81-3,.01-.01,.01-.03,.02-.04,0-.01,.01-.01,.01-.02h0c5.78-9.87,10.26-20.44,13.14-31.5,8.62-32.96,10.16-53.48,10.37-62.1,13,1.36,27.15,1.73,39.27-.49Z"/><path class="cls-35" d="M475.46,554.72c-38.21,16.67-58.97,8.41-58.97,8.41-1.06-13.18-10.65-57.65-51.77-83.06-41.11-25.41-72.7-5.12-72.7-5.12-40.59-32.64-95.06,3.83-106.94,23.12-11.89,19.29-14.24,32.47-21.18,34.35-3.39,.92-14.17-3.93-26.53-14.16,0,0-.02-.02-.07-.06-12.92-10.7-27.55-27.27-37.28-49.25-18.06-40.8-14.84-78.98-14.46-82.89-.89,7.01-2.01,13.78-3.45,20.86-3.53,17.3-9.39,64.09-7.74,93.27,1.65,29.17,13.77,60.12,18.82,63.88,5.06,3.76,6,3.41,7.06-4.82,1.06-8.24,3.89-17.06,6.71-17.18s4.82,17.53,17.53,43.65c12.7,26.11,39.65,49.17,39.65,49.17,0,0-8.36-25.06,2.58-39.06,10.95-14,32.3-11.82,46.15,0,13.85,11.83,19.85,40.42,19.85,40.42,22.95-13.06,76.59-37.83,102.59-38.89,19.96-.81,30.36,13.09,30.59,26.66,6.55,13.36-3.06,27.93-3.06,27.93,43.54-6.15,76.45-45.61,77.32-46.65-.23,.73-5.94,19.17,.98,21.42,7.05,2.29,31.94-5.47,58.41-38.3,26.17-32.44,40.22-88.02,40.55-89.3-15.11,24.31-38.13,44.03-64.64,55.6Zm-145.15-9.09c-9.09-1.63-18.26-14.12-41.82-14.91-23.56-.8-27.31,6.92-34.15,6.09-6.84-.84-8.03-7.8-6.5-11.56,1.53-3.77,17.93-12.78,42.77-10.94,23.82,1.76,43.35,13.94,47.35,17.88s1.44,15.07-7.65,13.44Z"/><path class="cls-28" d="M565.65,359.11c-.5-6.88-1.63-11.41-2.75-13.51-1.41-2.65-30.53-25.06-66.18-45.18-35.64-20.11-92.47-44.82-196.47-55.88-23.75-2.53-46.07-3.26-66.35-2.89-4.72-3.87-9.45-7.85-14.18-11.95,11.65-1.3,23.9-2.14,36.65-2.34,90.71-1.41,166.94,20.12,242.12,54.36,24.34,11.08,47.25,24.77,67.12,38.23,.26,8.16,.5,22.1,.04,39.16Z"/><path class="cls-14" d="M635.31,375.13s-28.28,10.53-70.02,7.18c-.21-.02-.43-.03-.65-.05,.5-8.14,.82-15.93,1.01-23.15,.46-17.06,.22-31-.04-39.16,41.51,28.11,69.7,55.18,69.7,55.18Z"/><path class="cls-18" d="M563.07,402.18c-21.02-2.41-38.46-7.17-38.46-7.17-3.89,69.18-76.59,119.65-135.53,72.71-58.94-46.94-36.36-122-36.36-122-55.64-30.29-106.66-63.77-149.91-102.6-50.85,3.89-82.89,13.68-82.89,13.68-5.87,18.75-21.44,74.61-22.02,141.39-.69,80.35,37.54,118.21,39.4,120.01,.05,.04,.07,.06,.07,.06,12.36,10.23,23.14,15.08,26.53,14.16,6.94-1.88,9.29-15.06,21.18-34.35,11.88-19.29,66.35-55.76,106.94-23.12,0,0,31.59-20.29,72.7,5.12,41.12,25.41,50.71,69.88,51.77,83.06,0,0,20.76,8.26,58.97-8.41,26.51-11.57,49.53-31.29,64.64-55.6v-.02c.62-.99,1.22-1.99,1.81-3,.01-.01,.01-.03,.02-.04,0-.01,.01-.01,.01-.02h0c5.78-9.87,10.26-20.44,13.14-31.5,8.62-32.96,10.16-53.48,10.37-62.1-.8-.08-1.59-.17-2.38-.26Zm-320.95-19.22c-1.02,3.81-4.46,6.32-8.21,6.32-.73,0-1.46-.1-2.2-.29-6.73-1.79-13.78-3.35-20.89-4.7,2.45,9.65-.27,32.79-15.15,40.99-17.3,9.53-34.24,1.23-41.92-13.95-6.53-12.92-1.43-29.68,.24-34.37-11.57-.92-19.12-1.21-19.32-1.22-4.69-.17-8.36-4.11-8.19-8.8s4.12-8.32,8.8-8.19c2.31,.08,57.09,2.17,100.81,13.81,4.53,1.21,7.23,5.87,6.03,10.4Zm-5.87-26.77c-9.82,.23-32.11-6.44-53.55-19.5-21.45-13.06-33-18.62-37.24-20.65-4.24-2.03-7.44-2.72-8.21-4.97-2.04-6.04-1.17-13.59,13.89-15.47,15.06-1.88,28.64,4.82,46.29,17.79,17.65,12.97,29.74,17.52,37.5,18.18,7.77,.66,11.56-1.1,13.46,3.22,1.89,4.32-2.31,21.16-12.14,21.4Z"/><path class="cls-25" d="M565.65,359.11c-.19,7.22-.51,15.01-1.01,23.15-24.86-2.02-86.14-8.19-163.75-39.95,2.91-1.52,6.97-3.16,12.81-4.48,14.82-3.35,35.02-17.05,50.61-19.64,15.59-2.59,25.36,2.17,32.41,3.29,7.06,1.12,8.71-5.7,4.48-11.75-4.24-6.05-12.55-13.37-20.09-16.81-7.55-3.44-20.52-3.97-37.02,2.74-16.5,6.7-39.78,18.12-49.13,20.82-9.35,2.71-13.94,.88-17.24,2.53-2.59,1.3-7.19,6.75-9.03,9.01-42.21-20.19-88.07-47.99-134.79-86.37,20.28-.37,42.6,.36,66.35,2.89,104,11.06,160.83,35.77,196.47,55.88,35.65,20.12,64.77,42.53,66.18,45.18,1.12,2.1,2.25,6.63,2.75,13.51Z"/></g><g><path class="cls-33" d="M71.9,337.13l-.8,16.81s-21.08-.22-31.08,14.37c-10,14.58-11.06,35.21-6.47,50.6-8.36-19.88-8.31-41.8-.36-57.78,12.95-26,38.71-24,38.71-24Z"/><path class="cls-2" d="M47.9,373.19c.02,.1,.04,.19,.07,.28-1.9,2.93-6.57,11.98-3.72,26.72,3.08,15.93,11.56,23.96,18.28,28.24l-3.22,23.52c-11.97-8.89-20.52-20.56-25.76-33.03h0c-4.59-15.4-3.53-36.03,6.47-50.61,10-14.59,31.08-14.37,31.08-14.37l-.73,15.42c-14.7-8.7-23.23,.47-22.47,3.83Z"/><path class="cls-36" d="M68.37,385.88l-5.84,42.55c-6.72-4.28-15.2-12.31-18.28-28.24-2.85-14.74,1.82-23.79,3.72-26.72,.82,3.16,2.94,3.96,9.52,4.31,6.76,.35,10.88,8.1,10.88,8.1Z"/></g></g><path class="cls-27" d="M296.96,664.54s5.79,3.62,11.21,7.79c5.41,4.18,6.57,11.21,6.13,16.28-.44,5.08,2.13,5.7,6.78,13.64,4.64,7.94,7.73,22.85-2.94,39.97-10.68,17.11-36.36,31.5-60.95,36.44-24.58,4.94-54.35-.35-70.58-22.24-16.24-21.88-15.65-42.17-15.65-42.17-.04-11.94,7.41-31.24,9.62-49.42,2.2-18.17,.73-26.47-2.09-37.58-2.82-11.12-2.59-22.77,5.26-25.46,7.86-2.69,20.4,6.48,26.21,15.63,8.03,12.65,3.71,36.91,23.73,33.83,20.03-3.09,38.68-19.77,71.5-30.94,15.31-5.21,25.92-7.28,33.05-7,8.16,.3,11.74,3.68,12.54,8.91,1.5,9.79-21.47,24.67-53.82,42.32Z"/><path class="cls-11" d="M296.96,664.54s5.79,3.62,11.21,7.79c5.41,4.18,6.57,11.21,6.13,16.28-.44,5.08,2.13,5.7,6.78,13.64,4.64,7.94,7.73,22.85-2.94,39.97-10.68,17.11-36.36,31.5-60.95,36.44-24.58,4.94-54.35-.35-70.58-22.24-16.24-21.88-15.65-42.17-15.65-42.17,0,0,10.06,45.53,59.82,42,49.77-3.53,74.06-31,76.77-45.94,2.7-14.95-4.71-24.24-12.83-32.59-8.11-8.36-8.47-9.65-8.23-11.65,.23-2,18.65-11.88,33.65-23,14.58-10.81,19.76-21.55,18.1-29.76,8.16,.3,11.74,3.68,12.54,8.91,1.5,9.79-21.47,24.67-53.82,42.32Z"/><path class="cls-1" d="M338.6,702.6c16.22-2.64,32.12-8.03,47.82-15-28.67,34.96-53.28,73.28-72.88,115.76l-21.53-19.88s30.89-13.65,43.94-40.82c10.76-22.41,2.65-40.06,2.65-40.06Z"/><path class="cls-13" d="M377.49,883.54c-25.02,22.21-51.93,37.81-81.59,43.71l-1.32-97.44c4.4-1.25,12.16-3.5,20.74-6.13l62.17,59.86Z"/><path class="cls-19" d="M315.32,823.68c-8.58,2.63-16.34,4.88-20.74,6.13l-.36-26.45,21.1,20.32Z"/><path class="cls-39" d="M397.31,878.66l-61.27-57.75c19.39-48.96,41.75-72.09,62.04-87.6,18-13.77,36.2-9.72,36.2-9.72,16.43,50.7,3.19,115.74-36.97,155.07Z"/><path class="cls-34" d="M434.28,723.59s-18.2-4.05-36.2,9.72c-20.29,15.51-42.65,38.64-62.04,87.6l-10.67-10.05c7.58-15.19,26.41-51.97,48.06-84.32,21.65-32.35,40-41.29,40-41.29,9.32,11.07,16.25,24.14,20.85,38.34Z"/></g><path class="cls-6" d="M357.67,528.6c-14.17-12.19-42.03-23.41-58.49-27.73-5.46-1.43-11.11-1.88-16.72-1.34-12.01,1.13-37.06,4.6-52.79,14.42-16.58,10.35-20.15,31.24-15.12,46.41,5.03,15.18,20.03,22.77,29.38,22.5,17.09-.48,18.09-19.23,37.59-21.61,16.27-1.99,22.59,7.94,35.38,19.06,12.79,11.11,30.18,11.11,42.79,.7,12.62-10.41,15.71-37.15-2.02-52.41Zm-27.36,17.03c-9.09-1.63-18.26-14.12-41.82-14.91-23.56-.8-27.31,6.92-34.15,6.09-6.84-.84-8.03-7.8-6.5-11.56,1.53-3.77,17.93-12.78,42.77-10.94,23.82,1.76,43.35,13.94,47.35,17.88s1.44,15.07-7.65,13.44Z"/></g><path class="cls-6" d="M656.47,526.73c4.08,17.63-2.92,38.39-16.8,38.39s-21.53-13.18-22-30.82c-.33-12.3,5.69-23.45,9.36-29.09,1.45-2.22,.91-5.19-1.25-6.74-1.63-1.18-3.84-1.29-5.53-.19-12.15,7.99-18.86,29.98-16.41,45.84,2.65,17.12,12.53,34.32,29.12,36s25.53-11.24,29.88-26.29c4.35-15.06-.59-29.88-.59-29.88l-5.78,2.78Z"/></svg>