<svg id="Layer_1" data-name="Layer 1" xmlns="http://www.w3.org/2000/svg" viewBox="0 -8 323.38 119.35"><defs><style>.cls-1{fill:#d34d33;}.cls-2{fill:#f75b43;}.cls-3{fill:#d14731;}.cls-4{fill:#fff;}</style></defs><path class="cls-1" d="M287.6,83.71h-.26a3,3,0,0,1-2.78-3.29c0-.13.65-9.27-4.83-15-3.29-3.41-8.28-5-14.8-4.7a3,3,0,1,1-.27-6.09c8.37-.38,14.93,1.84,19.5,6.59,7.4,7.72,6.52,19.18,6.47,19.66A3,3,0,0,1,287.6,83.71Z"/><path class="cls-1" d="M276.94,84.05l-.38,0a3,3,0,0,1-2.65-3.39c.19-1.6,1.39-15.59-13-18.09a3.05,3.05,0,0,1,1.05-6c16.33,2.83,18.92,17.49,18,24.84A3.05,3.05,0,0,1,276.94,84.05Z"/><path class="cls-1" d="M265.8,84.06a3.55,3.55,0,0,1-.64-.06,3.05,3.05,0,0,1-2.35-3.61c.11-.55,2.49-12.93-8.8-16.55A3.05,3.05,0,0,1,255.88,58c13.26,4.26,14.24,17.31,12.9,23.62A3.05,3.05,0,0,1,265.8,84.06Z"/><path class="cls-1" d="M187.82,83.85a3.06,3.06,0,0,1-3-2.78c0-.49-1-11.94,6.43-19.68,4.55-4.76,11.1-7,19.47-6.65a3,3,0,0,1-.25,6.09c-6.53-.26-11.5,1.33-14.78,4.75-5.48,5.7-4.8,14.87-4.79,15a3,3,0,0,1-2.78,3.29Z"/><path class="cls-1" d="M198.48,84.15a3,3,0,0,1-3-2.66c-.94-7.35,1.62-22,17.94-24.89a3.05,3.05,0,1,1,1.06,6c-14.39,2.53-13.14,16.53-13,18.12a3.06,3.06,0,0,1-2.66,3.4Z"/><path class="cls-1" d="M209.62,84.14a3.06,3.06,0,0,1-3-2.41c-1.35-6.3-.42-19.36,12.84-23.64a3,3,0,0,1,1.88,5.8c-11.39,3.68-8.87,16-8.75,16.56a3.05,3.05,0,0,1-2.34,3.62A2.88,2.88,0,0,1,209.62,84.14Z"/><path class="cls-1" d="M206.75,44.18c-12.08,4.64-19.51-1.45-22.8-5.37a16.48,16.48,0,0,0,2.85-10.19c-.21-12.3-17-13.72-17-13.72l2.51,13.94-12.59-7.2s-3.37,15,7.13,20.16c4.74,2.35,9.32,2.39,12.89.61,3.24,3.78,9.41,9.06,18.64,9.06a29,29,0,0,0,10.39-2.06Z"/><path class="cls-2" d="M223.29,8a8,8,0,1,0-8,8l3.44,14.6,3.6-.85-3.43-14.59A8,8,0,0,0,223.29,8Zm-8,4.27A4.27,4.27,0,1,1,219.59,8,4.27,4.27,0,0,1,215.33,12.27Z"/><path class="cls-2" d="M253.24,5.08a8,8,0,1,0-14.84,5.77,7.87,7.87,0,0,0,4.15,4.37L239.79,30l3.64.68,2.75-14.72a8,8,0,0,0,7.06-10.84Zm-3.52,4.6h0a4.19,4.19,0,0,1-2.36,2.26,4.24,4.24,0,0,1-3.26-.07,4.29,4.29,0,0,1-2.26-2.36,4.27,4.27,0,0,1,5.7-5.45,4.29,4.29,0,0,1,2.26,2.36A4.24,4.24,0,0,1,249.72,9.68Z"/><path class="cls-2" d="M270.11,38.38a35.82,35.82,0,0,0-7.23-7.67,39.59,39.59,0,0,0-21.1-8.2c-16-1.43-28.31-.08-39,8.86-11.89,10-11,26.12,1.7,34.16s37,10,54.35,5S277,48.57,270.11,38.38Zm-32.79-3.66c-.33.39-3.29,3.82-6.85,3.92h-.14c-3.71,0-6.26-3.88-6.37-4A1.5,1.5,0,0,1,226.48,33c.49.75,2.13,2.68,3.85,2.68h.06c1.87,0,4-2.07,4.62-2.84a1.5,1.5,0,0,1,2.31,1.92Z"/><path class="cls-3" d="M269.54,50.13a19.36,19.36,0,0,1-10.69,14.26l0,.26c1,6.78-3.26,12-9.94,14.31a19.1,19.1,0,0,1-2.19.63,13.26,13.26,0,0,1-3.13.34,16.46,16.46,0,0,1-10.32-4.3l3.94-3.76,3.42-3.25,2.55-2.43L238,65.72a46.37,46.37,0,0,0-6.39-5.35c1.37-2.58,4.06-5.54,9.33-6.93,7.29-1.93,13,.92,15.87,5.22a13.35,13.35,0,0,0,6.75-9.25,3,3,0,0,1,3.35-2.59A3,3,0,0,1,269.54,50.13Z"/><path class="cls-4" d="M231.63,60.37a50.58,50.58,0,0,0-14-7c-.81-.25-3.78-3.15-3.78-3.15l1.55,3.15-3.79-.77,2.54,3.3-2.69,2.3,4.9-.31c.13,0,12.48,3.63,20.89,14l3.42-3.25c-.85-1-1.73-2-2.64-2.9A46.37,46.37,0,0,0,231.63,60.37Z"/><path class="cls-4" d="M310.88,98.7a62.85,62.85,0,0,1-34-.87c-13.37-4.14-21.25-11-28-18.87a19.1,19.1,0,0,1-2.19.63,13.26,13.26,0,0,1-3.13.34c7.4,9,16.22,17.54,31.9,22.39a68,68,0,0,0,20.11,3,59.43,59.43,0,0,0,16.66-2.16Z"/><path class="cls-4" d="M177.85,70l2.28-2-2.28.51,1.81-3.23-3.82,2.34c.16-.8.34-4,.34-4a9.4,9.4,0,0,1-2.64,4.79c-9.41,7.69-17.35,11.14-36.19,11.14H0v4.7H137.35c21,0,29.81-4.29,40.5-13.31l3.89-1.8Z"/><path class="cls-4" d="M177.69,59.77a.39.39,0,0,1-.31-.15l-1.89-2.28a.4.4,0,0,1,.62-.51L178,59.11a.4.4,0,0,1-.05.56A.36.36,0,0,1,177.69,59.77Z"/><path class="cls-4" d="M183.32,59h0a.39.39,0,0,1-.37-.42l.25-3.57a.43.43,0,0,1,.43-.37.4.4,0,0,1,.37.43l-.25,3.56A.4.4,0,0,1,183.32,59Z"/><path class="cls-4" d="M188.81,75a.42.42,0,0,1-.26-.1L186,72.61a.41.41,0,0,1,0-.57.4.4,0,0,1,.56,0l2.57,2.28a.39.39,0,0,1,0,.56A.41.41,0,0,1,188.81,75Z"/><path class="cls-4" d="M180.26,79a.4.4,0,0,1-.4-.4V75.13a.4.4,0,0,1,.8,0v3.45A.4.4,0,0,1,180.26,79Z"/><path class="cls-4" d="M211.82,47.41h0a.4.4,0,0,1-.35-.45l.32-2.75a.4.4,0,0,1,.44-.35.39.39,0,0,1,.35.44l-.32,2.75A.39.39,0,0,1,211.82,47.41Z"/><path class="cls-4" d="M206.63,49.67a.42.42,0,0,1-.29-.12l-2.19-2.26a.41.41,0,0,1,0-.57.4.4,0,0,1,.56,0l2.2,2.26a.41.41,0,0,1,0,.57A.43.43,0,0,1,206.63,49.67Z"/><path class="cls-4" d="M205.53,62.77a.39.39,0,0,1-.29-.13.4.4,0,0,1,0-.56l2.57-2.4a.4.4,0,0,1,.55.59l-2.57,2.39A.43.43,0,0,1,205.53,62.77Z"/><path class="cls-4" d="M307.5,93.93h8.22a0,0,0,0,1,0,0v17.42a0,0,0,0,1,0,0H307.5a8.71,8.71,0,0,1-8.71-8.71v0A8.71,8.71,0,0,1,307.5,93.93Z"/><path class="cls-4" d="M314.41,96.46h7.37a1.6,1.6,0,0,1,1.6,1.6v0a1.6,1.6,0,0,1-1.6,1.6h-7.37a0,0,0,0,1,0,0v-3.2A0,0,0,0,1,314.41,96.46Z"/><path class="cls-4" d="M314.41,105.34h7.37a1.6,1.6,0,0,1,1.6,1.6v0a1.6,1.6,0,0,1-1.6,1.6h-7.37a0,0,0,0,1,0,0v-3.2a0,0,0,0,1,0,0Z"/></svg>