<svg xmlns="http://www.w3.org/2000/svg" viewBox="0 0 24 24" id="trakt">
  <path fill="#DE2318" d="M19.178 18.464a9.654 9.654 0 0 0 2.484-6.466c0-3.885-2.287-7.215-5.568-8.76l-6.089 6.076 9.173 9.15zm-6.83-7.393v-.008l-.678-.676 4.788-4.79.679.689-4.789 4.785zm3.863-7.265.677.682-5.517 5.517-.68-.679 5.52-5.52zM4.89 18.531A9.601 9.601 0 0 0 12 21.644a9.618 9.618 0 0 0 4.027-.876l-6.697-6.68-4.44 4.443z"></path>
  <path fill="#DE2318" d="M12 24c6.615 0 12-5.385 12-12S18.615 0 12 0 0 5.385 0 12s5.385 12 12 12zm0-22.789c5.95 0 10.79 4.839 10.79 10.789S17.95 22.79 12 22.79 1.211 17.95 1.211 12 6.05 1.211 12 1.211z"></path>
  <path fill="#DE2318" d="m4.276 17.801 5.056-5.055.359.329 7.245 7.245a3.31 3.31 0 0 0 .42-.266L9.33 12.05l-4.854 4.855-.679-.679 5.535-5.535.359.331 8.46 8.437c.135-.1.255-.215.375-.316L9.39 10.027l-.083.015-.006-.007-5.074 5.055-.679-.68L15.115 2.849A9.756 9.756 0 0 0 12 2.34C6.663 2.337 2.337 6.663 2.337 12c0 2.172.713 4.178 1.939 5.801z"></path>
</svg>
